<svg width="101" height="101" viewBox="0 0 101 101" fill="none" xmlns="http://www.w3.org/2000/svg">
<path d="M23.4219 30.8287L23.4926 30.6738L23.597 30.4415L23.7013 30.2092C27.2195 22.3413 35.0537 17.261 43.669 17.261C48.5507 17.261 53.2506 18.9174 57.0448 21.8498L53.9003 27.4048C51.0993 24.9572 47.4801 23.5634 43.6724 23.5634C36.5654 23.5634 30.3673 28.3643 28.6032 35.2356L28.2968 36.4308L27.7986 38.37L27.4484 37.8414C26.0109 35.6767 24.3545 34.2122 22.7688 33.2156C22.9943 32.1215 23.2603 31.2865 23.432 30.832L23.4219 30.8287ZM73.1812 31.566C73.2486 31.4414 73.3058 31.3337 73.3664 31.2461C73.3664 31.2461 73.3832 31.2158 73.3933 31.2024C74.1239 29.9601 75.0262 28.8289 76.0766 27.8391C78.9753 25.0784 82.7729 23.56 86.7893 23.56C90.7788 23.56 94.5057 25.0548 97.3405 27.6876L100.502 22.1056C96.6637 19.0117 91.8427 17.261 86.7893 17.261C80.7731 17.261 74.9723 19.7759 70.8414 24.1761C70.0906 24.974 69.4106 25.8292 68.7945 26.7281L56.7418 47.5442C53.8566 52.0185 48.9783 54.6815 43.6657 54.6815C40.501 54.6815 37.8447 53.9341 35.5082 52.4023C33.1718 50.8671 31.1417 48.507 29.3371 45.201L26.1859 39.7537C26.1859 39.7537 26.1758 39.7369 26.1725 39.7301C25.5227 38.6158 24.6979 37.6125 23.7821 36.7001L22.4456 35.3703C19.6411 33.0877 16.1028 31.7848 12.3725 31.7848H7.00268C7.00941 31.3067 7.03298 30.8287 7.08011 30.3573V30.327C7.85781 22.8025 14.1669 16.8065 21.7318 16.416L23.0011 16.3486V10.053L21.6039 10.1136C12.0493 10.5277 3.75048 17.261 1.37698 26.5328C1.31301 26.5227 0.989814 28.3946 0.966248 28.5696C0.777714 29.8153 0.787814 31.0441 0.787814 32.2999V60.9805H6.99595V38.0838H9.55798C14.6686 38.0838 19.3886 40.8142 21.9406 45.2447L23.9875 48.8033L24.8662 50.2712C28.7951 56.8799 35.9897 60.9805 43.6657 60.9805C50.2879 60.9805 56.6644 57.8731 60.8357 52.6649L61.0242 52.4191L61.2733 52.0892C61.4585 51.8434 61.637 51.5976 61.812 51.3418L61.8221 51.3249L61.8288 51.3148L73.1779 31.5727L73.1846 31.5626L73.1812 31.566ZM86.7893 54.6781C79.5375 54.6781 73.3226 49.7695 71.6528 42.7298L70.8751 39.4406L66.4412 47.157L66.7071 47.7731C70.1714 55.7925 78.0562 60.9772 86.7893 60.9772C91.8326 60.9772 96.6469 59.2332 100.482 56.1494L97.3203 50.5674C94.4889 53.1867 90.7687 54.6748 86.7859 54.6781H86.7893Z" fill="url(#paint0_linear_208_1062)"/>
<path d="M0.498291 68.1582H6.43709V69.7742H2.37689V72.6998H5.79742V74.3158H2.37689V78.4939H0.498291V68.1616V68.1582Z" fill="#423E3B"/>
<path d="M7.76019 68.1582H9.59503V69.8045H7.76019V68.1582ZM7.76019 71.0704H9.60849V78.4939H7.76019V71.0704Z" fill="#423E3B"/>
<path d="M11.5039 71.0671H13.2782V72.3464C13.2782 72.6225 13.2479 72.8716 13.2479 72.8716H13.2782C13.6115 71.8077 14.5003 70.9661 15.6348 70.9661C15.8099 70.9661 15.9681 70.9964 15.9681 70.9964V72.8144C15.9681 72.8144 15.7796 72.7841 15.5305 72.7841C14.746 72.7841 13.8572 73.2352 13.5071 74.3428C13.3893 74.7064 13.3455 75.1138 13.3455 75.5515V78.4906H11.4972V71.0671H11.5039Z" fill="#423E3B"/>
<path d="M17.2945 76.2786C17.2945 76.2786 18.1093 77.0933 19.3179 77.0933C19.8431 77.0933 20.2942 76.861 20.2942 76.4233C20.2942 75.3191 16.6852 75.4638 16.6852 73.0769C16.6852 71.6932 17.9207 70.8953 19.5233 70.8953C21.1258 70.8953 22.0112 71.7403 22.0112 71.7403L21.3278 73.1072C21.3278 73.1072 20.6444 72.4675 19.5098 72.4675C19.0284 72.4675 18.5638 72.6729 18.5638 73.1375C18.5638 74.1845 22.1728 74.0532 22.1728 76.4402C22.1728 77.6757 21.0955 78.6655 19.3347 78.6655C17.4864 78.6655 16.4529 77.5747 16.4529 77.5747L17.2979 76.2786H17.2945Z" fill="#423E3B"/>
<path d="M23.8293 72.6559H22.8698V71.1847H23.873V69.0469H25.6775V71.1847H27.3643V72.6559H25.6775V75.5378C25.6775 76.7599 26.6371 76.935 27.1488 76.935C27.3542 76.935 27.4821 76.9047 27.4821 76.9047V78.5207C27.4821 78.5207 27.2633 78.5644 26.9131 78.5644C25.8796 78.5644 23.8293 78.2581 23.8293 75.7701V72.6559Z" fill="#423E3B"/>
<path d="M37.1343 67.9832C39.6526 67.9832 40.9454 69.3938 40.9454 69.3938L40.0431 70.791C40.0431 70.791 38.8648 69.7002 37.2185 69.7002C35.0369 69.7002 33.7542 71.3296 33.7542 73.252C33.7542 75.1744 35.0773 76.9486 37.2319 76.9486C39.023 76.9486 40.2317 75.639 40.2317 75.639L41.2215 76.9924C41.2215 76.9924 39.794 78.6656 37.1612 78.6656C34.0033 78.6656 31.8217 76.3224 31.8217 73.2823C31.8217 70.2422 34.0909 67.9865 37.1343 67.9865V67.9832Z" fill="#423E3B"/>
<path d="M46.0425 70.8953C48.3117 70.8953 50.133 72.5113 50.133 74.7804C50.133 77.0495 48.315 78.6655 46.0594 78.6655C43.8037 78.6655 41.9689 77.0664 41.9689 74.7804C41.9689 72.4944 43.7869 70.8953 46.0425 70.8953ZM46.056 77.0933C47.2512 77.0933 48.2544 76.1607 48.2544 74.7804C48.2544 73.4001 47.2512 72.4675 46.056 72.4675C44.8608 72.4675 43.8441 73.4135 43.8441 74.7804C43.8441 76.1473 44.8474 77.0933 46.056 77.0933Z" fill="#423E3B"/>
<path d="M51.4696 71.0671H53.2439V72.3464C53.2439 72.6225 53.2136 72.8716 53.2136 72.8716H53.2439C53.5772 71.8077 54.466 70.9661 55.6005 70.9661C55.7756 70.9661 55.9338 70.9964 55.9338 70.9964V72.8144C55.9338 72.8144 55.7453 72.7841 55.4962 72.7841C54.7117 72.7841 53.8229 73.2352 53.4728 74.3428C53.355 74.7064 53.3112 75.1138 53.3112 75.5515V78.4906H51.4629V71.0671H51.4696Z" fill="#423E3B"/>
<path d="M57.0448 71.0669H58.7349V71.6056C58.7349 71.8816 58.7046 72.1139 58.7046 72.1139H58.7349C58.7349 72.1139 59.3745 70.8918 61.1218 70.8918C63.1317 70.8918 64.4111 72.4775 64.4111 74.777C64.4111 77.0764 62.9701 78.6621 61.0208 78.6621C59.5496 78.6621 58.8965 77.642 58.8965 77.642H58.8662C58.8662 77.642 58.8965 77.9046 58.8965 78.2817V81.3958H57.0482V71.0635L57.0448 71.0669ZM60.6842 77.1067C61.7043 77.1067 62.5459 76.2785 62.5459 74.8073C62.5459 73.336 61.7884 72.4775 60.6976 72.4775C59.7381 72.4775 58.8359 73.1744 58.8359 74.8207C58.8359 75.9721 59.4621 77.1067 60.6842 77.1067Z" fill="#423E3B"/>
<path d="M69.3163 70.8953C71.5854 70.8953 73.4068 72.5113 73.4068 74.7804C73.4068 77.0495 71.5888 78.6655 69.3331 78.6655C67.0775 78.6655 65.2426 77.0664 65.2426 74.7804C65.2426 72.4944 67.0606 70.8953 69.3163 70.8953ZM69.3297 77.0933C70.5249 77.0933 71.5282 76.1607 71.5282 74.7804C71.5282 73.4001 70.5249 72.4675 69.3297 72.4675C68.1346 72.4675 67.1179 73.4135 67.1179 74.7804C67.1179 76.1473 68.1211 77.0933 69.3297 77.0933Z" fill="#423E3B"/>
<path d="M74.7434 71.0671H76.5176V72.3464C76.5176 72.6225 76.4873 72.8716 76.4873 72.8716H76.5176C76.8509 71.8077 77.7397 70.9661 78.8743 70.9661C79.0493 70.9661 79.2076 70.9964 79.2076 70.9964V72.8144C79.2076 72.8144 79.019 72.7841 78.7699 72.7841C77.9855 72.7841 77.0967 73.2352 76.7465 74.3428C76.6287 74.7064 76.5849 75.1138 76.5849 75.5515V78.4906H74.7366V71.0671H74.7434Z" fill="#423E3B"/>
<path d="M84.0892 73.8344H84.3384V73.7334C84.3384 72.7571 83.7256 72.4238 82.9109 72.4238C81.847 72.4238 80.8741 73.1375 80.8741 73.1375L80.1772 71.8144C80.1772 71.8144 81.3286 70.8987 83.0893 70.8987C85.0386 70.8987 86.1732 71.976 86.1732 73.8512V78.4939H84.4697V77.8812C84.4697 77.5883 84.5 77.356 84.5 77.356H84.4697C84.4697 77.356 83.9007 78.6656 82.214 78.6656C80.8909 78.6656 79.6957 77.8374 79.6957 76.3527C79.6957 73.996 82.884 73.8344 84.0892 73.8344ZM82.6786 77.2247C83.6549 77.2247 84.3518 76.1776 84.3518 75.2753V75.1003H84.032C83.086 75.1003 81.5575 75.2316 81.5575 76.2651C81.5575 76.76 81.9211 77.2247 82.6786 77.2247Z" fill="#423E3B"/>
<path d="M88.2235 72.6559H87.264V71.1847H88.2673V69.0469H90.0718V71.1847H91.7585V72.6559H90.0718V75.5378C90.0718 76.7599 91.0313 76.935 91.5431 76.935C91.7451 76.935 91.8764 76.9047 91.8764 76.9047V78.5207C91.8764 78.5207 91.6575 78.5644 91.3074 78.5644C90.2738 78.5644 88.2235 78.2581 88.2235 75.7701V72.6559Z" fill="#423E3B"/>
<path d="M96.4887 70.8953C98.6265 70.8953 99.7779 72.4507 99.7779 74.4168C99.7779 74.6356 99.7341 75.1305 99.7341 75.1305H94.6101C94.7279 76.4267 95.7312 77.0967 96.8355 77.0967C98.0306 77.0967 98.9733 76.2819 98.9733 76.2819L99.687 77.605C99.687 77.605 98.5524 78.6689 96.7041 78.6689C94.2431 78.6689 92.718 76.8947 92.718 74.7838C92.718 72.4978 94.2734 70.8986 96.4853 70.8986L96.4887 70.8953ZM97.9162 73.8647C97.8859 72.8614 97.263 72.3227 96.4449 72.3227C95.4989 72.3227 94.8424 72.9052 94.6707 73.8647H97.9162Z" fill="#423E3B"/>
<path d="M24.1794 84.5068C25.6776 84.5068 26.4452 85.3283 26.4452 85.3283L26.0142 85.9814C26.0142 85.9814 25.2904 85.3013 24.2164 85.3013C22.8226 85.3013 21.9136 86.3585 21.9136 87.6816C21.9136 89.0047 22.8395 90.1426 24.2232 90.1426C25.3948 90.1426 26.1455 89.3312 26.1455 89.3312L26.6135 89.9574C26.6135 89.9574 25.7584 90.9439 24.1962 90.9439C22.3277 90.9439 21.0114 89.5164 21.0114 87.6883C21.0114 85.8602 22.3681 84.5034 24.176 84.5034L24.1794 84.5068Z" fill="#423E3B"/>
<path d="M29.5728 84.6145H30.4448V90.082H33.2324V90.8395H29.5728V84.6145Z" fill="#423E3B"/>
<path d="M38.6224 84.5066C40.4202 84.5066 41.814 85.8903 41.814 87.6814C41.814 89.4724 40.4202 90.9437 38.6224 90.9437C36.8246 90.9437 35.4207 89.5162 35.4207 87.6814C35.4207 85.8465 36.8212 84.5066 38.6224 84.5066ZM38.6224 90.1424C39.8916 90.1424 40.9151 89.0853 40.9151 87.6814C40.9151 86.2775 39.8916 85.3011 38.6224 85.3011C37.3532 85.3011 36.3196 86.3246 36.3196 87.6814C36.3196 89.0381 37.3498 90.1424 38.6224 90.1424Z" fill="#423E3B"/>
<path d="M46.0964 85.372H43.9619V84.6145H49.1028V85.372H46.9683V90.8395H46.0964V85.372Z" fill="#423E3B"/>
<path d="M51.7625 84.6145H52.6345V87.3482H55.8631V84.6145H56.7351V90.8395H55.8631V88.1057H52.6345V90.8395H51.7625V84.6145Z" fill="#423E3B"/>
<path d="M60.196 84.6145H61.0679V90.8395H60.196V84.6145Z" fill="#423E3B"/>
<path d="M64.5289 84.6145H65.3942L68.1616 88.6612C68.3905 88.9979 68.6834 89.5601 68.6834 89.5601H68.7002C68.7002 89.5601 68.6396 89.0046 68.6396 88.6612V84.6145H69.5116V90.8395H68.6565L65.879 86.7995C65.65 86.4561 65.3571 85.8905 65.3571 85.8905H65.3403C65.3403 85.8905 65.4009 86.446 65.4009 86.7995V90.8395H64.5289V84.6145Z" fill="#423E3B"/>
<path d="M75.7298 84.5066C77.2212 84.5066 77.9956 85.2574 77.9956 85.2574L77.5545 85.9105C77.5545 85.9105 76.8576 85.3011 75.8005 85.3011C74.336 85.3011 73.4539 86.3684 73.4539 87.6982C73.4539 89.1459 74.4404 90.1424 75.7466 90.1424C76.824 90.1424 77.5108 89.3647 77.5108 89.3647V88.4658H76.4974V87.7083H78.3053V90.8393H77.5377V90.4521C77.5377 90.3208 77.5478 90.1862 77.5478 90.1862H77.531C77.531 90.1862 76.8509 90.9437 75.6187 90.9437C73.9421 90.9437 72.5584 89.6206 72.5584 87.715C72.5584 85.9172 73.9152 84.5066 75.7332 84.5066H75.7298Z" fill="#423E3B"/>
<defs>
<linearGradient id="paint0_linear_208_1062" x1="0.784448" y1="35.5184" x2="100.502" y2="35.5184" gradientUnits="userSpaceOnUse">
<stop stop-color="#F18A0B"/>
<stop offset="1" stop-color="#DC3014"/>
</linearGradient>
</defs>
</svg>
